<mxfile host="drawio-plugin" modified="2024-03-16T07:53:02.979Z" agent="5.0 (Windows NT 10.0; Win64; x64) AppleWebKit/537.36 (KHTML, like Gecko) Chrome/111.0.0.0 Safari/537.36" etag="xEUufBsHtWy7wyQ9QR8D" version="20.5.3" type="embed"><diagram id="23iRSUPoRavnBvh4doch" name="Page-1"><mxGraphModel dx="872" dy="700" grid="1" gridSize="10" guides="1" tooltips="1" connect="1" arrows="1" fold="1" page="1" pageScale="1" pageWidth="827" pageHeight="1169" math="0" shadow="0"><root><mxCell id="0"/><mxCell id="1" parent="0"/><mxCell id="2" value="&lt;p style=&quot;margin:0px;margin-top:4px;text-align:center;&quot;&gt;&lt;i&gt;&amp;lt;&amp;lt;Interface&amp;gt;&amp;gt;&lt;/i&gt;&lt;br&gt;&lt;b&gt;OnlineStore&lt;/b&gt;&lt;/p&gt;&lt;hr size=&quot;1&quot;&gt;&lt;p style=&quot;margin:0px;margin-left:4px;&quot;&gt;+ addToBucket(product: Product)&lt;/p&gt;&lt;p style=&quot;margin:0px;margin-left:4px;&quot;&gt;+ removeFromBucket(product: Product)&lt;/p&gt;&lt;p style=&quot;margin:0px;margin-left:4px;&quot;&gt;+ buy()&lt;br&gt;&lt;/p&gt;" style="verticalAlign=top;align=left;overflow=fill;fontSize=12;fontFamily=Helvetica;html=1;" parent="1" vertex="1"><mxGeometry x="80" y="80" width="240" height="100" as="geometry"/></mxCell><mxCell id="4" value="RealOnlineStrore" style="swimlane;fontStyle=1;align=center;verticalAlign=top;childLayout=stackLayout;horizontal=1;startSize=26;horizontalStack=0;resizeParent=1;resizeParentMax=0;resizeLast=0;collapsible=1;marginBottom=0;" parent="1" vertex="1"><mxGeometry x="80" y="240" width="240" height="170" as="geometry"/></mxCell><mxCell id="5" value="- onlineStoreFacade: OnlineStoreFacade&#10;- bucket: List&lt;Product&gt;" style="text;strokeColor=none;fillColor=none;align=left;verticalAlign=top;spacingLeft=4;spacingRight=4;overflow=hidden;rotatable=0;points=[[0,0.5],[1,0.5]];portConstraint=eastwest;" parent="4" vertex="1"><mxGeometry y="26" width="240" height="44" as="geometry"/></mxCell><mxCell id="6" value="" style="line;strokeWidth=1;fillColor=none;align=left;verticalAlign=middle;spacingTop=-1;spacingLeft=3;spacingRight=3;rotatable=0;labelPosition=right;points=[];portConstraint=eastwest;strokeColor=inherit;" parent="4" vertex="1"><mxGeometry y="70" width="240" height="8" as="geometry"/></mxCell><mxCell id="7" value="+ addToBucket(product: Product)&#10;+ removeFromBucket(product: Product)&#10;+ buy()&#10;- formOrder(products: List&lt;Product&gt;)&#10;- execOrder(order: Order)" style="text;strokeColor=none;fillColor=none;align=left;verticalAlign=top;spacingLeft=4;spacingRight=4;overflow=hidden;rotatable=0;points=[[0,0.5],[1,0.5]];portConstraint=eastwest;" parent="4" vertex="1"><mxGeometry y="78" width="240" height="92" as="geometry"/></mxCell><mxCell id="8" value="" style="endArrow=block;dashed=1;endFill=0;endSize=12;html=1;rounded=0;exitX=0.5;exitY=0;exitDx=0;exitDy=0;entryX=0.5;entryY=1;entryDx=0;entryDy=0;" parent="1" source="4" target="2" edge="1"><mxGeometry width="160" relative="1" as="geometry"><mxPoint x="220" y="200" as="sourcePoint"/><mxPoint x="380" y="200" as="targetPoint"/></mxGeometry></mxCell><mxCell id="9" value="OnlineStoreFacade" style="swimlane;fontStyle=1;align=center;verticalAlign=top;childLayout=stackLayout;horizontal=1;startSize=26;horizontalStack=0;resizeParent=1;resizeParentMax=0;resizeLast=0;collapsible=1;marginBottom=0;" parent="1" vertex="1"><mxGeometry x="79" y="480" width="240" height="160" as="geometry"/></mxCell><mxCell id="10" value="- paymentService: PaymentService&#10;- repository: OnlineStoreRepository&#10;- notificationService: NotificationService" style="text;strokeColor=none;fillColor=none;align=left;verticalAlign=top;spacingLeft=4;spacingRight=4;overflow=hidden;rotatable=0;points=[[0,0.5],[1,0.5]];portConstraint=eastwest;" parent="9" vertex="1"><mxGeometry y="26" width="240" height="54" as="geometry"/></mxCell><mxCell id="11" value="" style="line;strokeWidth=1;fillColor=none;align=left;verticalAlign=middle;spacingTop=-1;spacingLeft=3;spacingRight=3;rotatable=0;labelPosition=right;points=[];portConstraint=eastwest;strokeColor=inherit;" parent="9" vertex="1"><mxGeometry y="80" width="240" height="8" as="geometry"/></mxCell><mxCell id="12" value="+ doAllOperations(order: Order)&#10;- makePayment(order: Order)&#10;- saveOrderInfo(order: Order)&#10;- sendNotification()" style="text;strokeColor=none;fillColor=none;align=left;verticalAlign=top;spacingLeft=4;spacingRight=4;overflow=hidden;rotatable=0;points=[[0,0.5],[1,0.5]];portConstraint=eastwest;" parent="9" vertex="1"><mxGeometry y="88" width="240" height="72" as="geometry"/></mxCell><mxCell id="14" value="Product" style="swimlane;fontStyle=1;align=center;verticalAlign=top;childLayout=stackLayout;horizontal=1;startSize=26;horizontalStack=0;resizeParent=1;resizeParentMax=0;resizeLast=0;collapsible=1;marginBottom=0;" parent="1" vertex="1"><mxGeometry x="520" y="80" width="160" height="70" as="geometry"/></mxCell><mxCell id="15" value="+ name: String&#10;+ price: BigDecimal" style="text;strokeColor=none;fillColor=none;align=left;verticalAlign=top;spacingLeft=4;spacingRight=4;overflow=hidden;rotatable=0;points=[[0,0.5],[1,0.5]];portConstraint=eastwest;" parent="14" vertex="1"><mxGeometry y="26" width="160" height="44" as="geometry"/></mxCell><mxCell id="18" value="Order" style="swimlane;fontStyle=1;align=center;verticalAlign=top;childLayout=stackLayout;horizontal=1;startSize=26;horizontalStack=0;resizeParent=1;resizeParentMax=0;resizeLast=0;collapsible=1;marginBottom=0;" parent="1" vertex="1"><mxGeometry x="520" y="240" width="160" height="70" as="geometry"/></mxCell><mxCell id="19" value="+ id: String&#10;+ products: List&lt;Product&gt;" style="text;strokeColor=none;fillColor=none;align=left;verticalAlign=top;spacingLeft=4;spacingRight=4;overflow=hidden;rotatable=0;points=[[0,0.5],[1,0.5]];portConstraint=eastwest;" parent="18" vertex="1"><mxGeometry y="26" width="160" height="44" as="geometry"/></mxCell><mxCell id="22" value="Use" style="endArrow=open;endSize=12;dashed=1;html=1;rounded=0;exitX=1.005;exitY=0.074;exitDx=0;exitDy=0;exitPerimeter=0;" parent="1" source="4" edge="1"><mxGeometry width="160" relative="1" as="geometry"><mxPoint x="330" y="280" as="sourcePoint"/><mxPoint x="520" y="123" as="targetPoint"/><Array as="points"><mxPoint x="400" y="253"/><mxPoint x="400" y="123"/></Array></mxGeometry></mxCell><mxCell id="23" value="1" style="endArrow=open;html=1;endSize=12;startArrow=diamondThin;startSize=14;startFill=0;edgeStyle=orthogonalEdgeStyle;align=left;verticalAlign=bottom;rounded=0;exitX=0.501;exitY=1.004;exitDx=0;exitDy=0;exitPerimeter=0;entryX=0.5;entryY=0;entryDx=0;entryDy=0;" parent="1" source="7" target="9" edge="1"><mxGeometry x="-0.4364" y="10" relative="1" as="geometry"><mxPoint x="240" y="390" as="sourcePoint"/><mxPoint x="400" y="390" as="targetPoint"/><mxPoint as="offset"/></mxGeometry></mxCell><mxCell id="24" value="Use" style="endArrow=open;endSize=12;dashed=1;html=1;rounded=0;exitX=1;exitY=0.5;exitDx=0;exitDy=0;entryX=0;entryY=0.5;entryDx=0;entryDy=0;" parent="1" source="10" target="19" edge="1"><mxGeometry width="160" relative="1" as="geometry"><mxPoint x="330" y="450" as="sourcePoint"/><mxPoint x="520" y="334" as="targetPoint"/><Array as="points"><mxPoint x="480" y="533"/><mxPoint x="480" y="288"/></Array></mxGeometry></mxCell><mxCell id="25" value="Use" style="endArrow=open;endSize=12;dashed=1;html=1;rounded=0;entryX=0;entryY=0.25;entryDx=0;entryDy=0;exitX=1;exitY=0.5;exitDx=0;exitDy=0;" parent="1" source="5" target="18" edge="1"><mxGeometry width="160" relative="1" as="geometry"><mxPoint x="320" y="300" as="sourcePoint"/><mxPoint x="520" y="309.50800000000004" as="targetPoint"/><Array as="points"><mxPoint x="440" y="288"/><mxPoint x="440" y="258"/></Array></mxGeometry></mxCell><mxCell id="26" value="PaymentService" style="swimlane;fontStyle=1;align=center;verticalAlign=top;childLayout=stackLayout;horizontal=1;startSize=26;horizontalStack=0;resizeParent=1;resizeParentMax=0;resizeLast=0;collapsible=1;marginBottom=0;" parent="1" vertex="1"><mxGeometry x="79" y="720" width="190" height="52" as="geometry"/></mxCell><mxCell id="29" value="+ makePayment(order: Order)" style="text;strokeColor=none;fillColor=none;align=left;verticalAlign=top;spacingLeft=4;spacingRight=4;overflow=hidden;rotatable=0;points=[[0,0.5],[1,0.5]];portConstraint=eastwest;" parent="26" vertex="1"><mxGeometry y="26" width="190" height="26" as="geometry"/></mxCell><mxCell id="30" value="OnlineStoreRepository" style="swimlane;fontStyle=1;align=center;verticalAlign=top;childLayout=stackLayout;horizontal=1;startSize=26;horizontalStack=0;resizeParent=1;resizeParentMax=0;resizeLast=0;collapsible=1;marginBottom=0;" parent="1" vertex="1"><mxGeometry x="318" y="720" width="190" height="52" as="geometry"/></mxCell><mxCell id="31" value="+ save(order: Order)" style="text;strokeColor=none;fillColor=none;align=left;verticalAlign=top;spacingLeft=4;spacingRight=4;overflow=hidden;rotatable=0;points=[[0,0.5],[1,0.5]];portConstraint=eastwest;" parent="30" vertex="1"><mxGeometry y="26" width="190" height="26" as="geometry"/></mxCell><mxCell id="32" value="NotificationService" style="swimlane;fontStyle=1;align=center;verticalAlign=top;childLayout=stackLayout;horizontal=1;startSize=26;horizontalStack=0;resizeParent=1;resizeParentMax=0;resizeLast=0;collapsible=1;marginBottom=0;" parent="1" vertex="1"><mxGeometry x="559" y="720" width="191" height="50" as="geometry"/></mxCell><mxCell id="33" value="+ sendMessage(order: Order)" style="text;strokeColor=none;fillColor=none;align=left;verticalAlign=top;spacingLeft=4;spacingRight=4;overflow=hidden;rotatable=0;points=[[0,0.5],[1,0.5]];portConstraint=eastwest;" parent="32" vertex="1"><mxGeometry y="26" width="191" height="24" as="geometry"/></mxCell><mxCell id="37" value="1" style="endArrow=open;html=1;endSize=12;startArrow=diamondThin;startSize=14;startFill=0;edgeStyle=orthogonalEdgeStyle;align=left;verticalAlign=bottom;rounded=0;exitX=0.171;exitY=1;exitDx=0;exitDy=0;exitPerimeter=0;" edge="1" parent="1" source="12" target="26"><mxGeometry x="-1" y="3" relative="1" as="geometry"><mxPoint x="110" y="670" as="sourcePoint"/><mxPoint x="460" y="510" as="targetPoint"/></mxGeometry></mxCell><mxCell id="38" value="1" style="endArrow=open;html=1;endSize=12;startArrow=diamondThin;startSize=14;startFill=0;edgeStyle=orthogonalEdgeStyle;align=left;verticalAlign=bottom;rounded=0;entryX=0.5;entryY=0;entryDx=0;entryDy=0;exitX=0.492;exitY=1.014;exitDx=0;exitDy=0;exitPerimeter=0;" edge="1" parent="1" source="12" target="30"><mxGeometry x="-1" y="3" relative="1" as="geometry"><mxPoint x="300" y="510" as="sourcePoint"/><mxPoint x="460" y="510" as="targetPoint"/></mxGeometry></mxCell><mxCell id="39" value="1" style="endArrow=open;html=1;endSize=12;startArrow=diamondThin;startSize=14;startFill=0;edgeStyle=orthogonalEdgeStyle;align=left;verticalAlign=bottom;rounded=0;entryX=0.5;entryY=0;entryDx=0;entryDy=0;exitX=0.913;exitY=1.014;exitDx=0;exitDy=0;exitPerimeter=0;" edge="1" parent="1" source="12" target="32"><mxGeometry x="-1" y="3" relative="1" as="geometry"><mxPoint x="300" y="510" as="sourcePoint"/><mxPoint x="460" y="510" as="targetPoint"/><Array as="points"><mxPoint x="298" y="660"/><mxPoint x="655" y="660"/></Array></mxGeometry></mxCell></root></mxGraphModel></diagram></mxfile>